<svg xmlns="http://www.w3.org/2000/svg" fill-rule="evenodd" clip-rule="evenodd" image-rendering="optimizeQuality" shape-rendering="geometricPrecision" text-rendering="geometricPrecision" viewBox="0 0 1.707 1.707" id="Creativity">
  <defs>
    <linearGradient id="a" x1=".028" x2="1.679" y1=".853" y2=".853" gradientUnits="userSpaceOnUse">
      <stop offset="0" stop-color="#20b3c8" class="stopColorec297b svgShape"></stop>
      <stop offset=".059" stop-color="#27c4db" class="stopColordb2776 svgShape"></stop>
      <stop offset=".169" stop-color="#23acc0" class="stopColorc0236d svgShape"></stop>
      <stop offset=".278" stop-color="#219bad" class="stopColorad2168 svgShape"></stop>
      <stop offset=".4" stop-color="#1f91a2" class="stopColora21f64 svgShape"></stop>
      <stop offset=".522" stop-color="#1f8e9e" class="stopColor9e1f63 svgShape"></stop>
      <stop offset=".961" stop-color="#1b94a6" class="stopColor90278e svgShape"></stop>
      <stop offset="1" stop-color="#1b94a6" class="stopColor90278e svgShape"></stop>
    </linearGradient>
  </defs>
  <path fill="url(#a)" d="M0.334031 1.34794l0.0107205 -0.0144567c-0.0108937,-0.0187362 -0.019185,-0.0386929 -0.0247165,-0.0595866l-0.0770472 -0.0114606c-0.00981496,-0.00144094 -0.0170709,-0.0098622 -0.0170709,-0.0197756l0 -0.0631575c0,-0.00991339 0.00725591,-0.0183189 0.0170709,-0.0197795l0.0770472 -0.0114567c0.00554724,-0.0209016 0.0138228,-0.0408465 0.0247165,-0.0595866l-0.0463858 -0.0625551c-0.00589764,-0.00795669 -0.00507874,-0.0190394 0.00192913,-0.0260551l0.0446929 -0.0446535c0.00699606,-0.00698425 0.0180906,-0.0078189 0.0260709,-0.00192913l0.0626181 0.0463465c0.0187559,-0.0108898 0.0387205,-0.0191654 0.0596299,-0.0247087l0.0114685 -0.0769606c0.00146457,-0.00980709 0.00988583,-0.0170709 0.0197992,-0.0170709l0.0632165 1.9685e-005c0.00990945,0 0.0183346,0.00725197 0.0197992,0.0170709l0.0114685 0.0769606c0.0209252,0.00554331 0.0408858,0.0138228 0.0596457,0.0246929l0.0626024 -0.0463346c0.00798031,-0.00590157 0.0190748,-0.00505512 0.0260709,0.00192913l0.0447087 0.0446535c0.00700787,0.00701181 0.00783858,0.0180984 0.00192913,0.0260551l-0.0463858 0.0625551c0.0108937,0.0187362 0.0191693,0.038685 0.0247165,0.0595866l0.0770354 0.0114567c0.00981496,0.00144488 0.0170866,0.00986614 0.0170866,0.0197795l0 0.0631575c0,0.00991339 -0.00725591,0.0183189 -0.0170866,0.0197756l-0.0770354 0.0114606c-0.0055315,0.0208858 -0.0138228,0.0408346 -0.0247165,0.0595709l0.0107165 0.0144567 -0.444315 0zm0.358516 -0.599059c-0.0110394,0 -0.02,-0.00896063 -0.02,-0.02l0 -0.0508031c0,-0.0110394 0.00896063,-0.02 0.02,-0.02 0.0110394,0 0.02,0.00896063 0.02,0.02l0 0.0508031c0,0.0110394 -0.00894488,0.02 -0.02,0.02zm0.191902 0c-0.0110394,0 -0.02,-0.00896063 -0.02,-0.02l0 -0.0508031c0,-0.0110394 0.00897244,-0.02 0.02,-0.02 0.0110315,0 0.02,0.00896063 0.02,0.02l0 0.0508031c1.1811e-005,0.0110394 -0.00896063,0.02 -0.02,0.02zm-0.0547913 0.0973583c-0.0110394,0 -0.02,-0.00896063 -0.02,-0.02l0 -0.104413c0,-0.0110394 0.00896063,-0.02 0.02,-0.02 0.0110394,0 0.02,0.00896063 0.02,0.02l0 0.104413c0,0.0110551 -0.00896063,0.02 -0.02,0.02zm-0.0823031 0c-0.0110394,0 -0.02,-0.00896063 -0.02,-0.02l0 -0.104413c0,-0.0110394 0.00896063,-0.02 0.02,-0.02 0.0110394,0 0.02,0.00896063 0.02,0.02l0 0.104413c0,0.0110551 -0.00896063,0.02 -0.02,0.02zm0.119106 -0.208665l-0.155925 0c-0.0110394,0 -0.02,-0.00896063 -0.02,-0.02l0 -0.0241181c0.00634646,0.00224803 0.0131024,0.00343307 0.02,0.00343307l0.155925 0c0.00691339,0 0.0136772,-0.00118898 0.0200315,-0.00344094l0 0.0241417c-1.5748e-005,0.0110236 -0.00898819,0.0199843 -0.0200315,0.0199843zm0.10587 -0.061748c-0.000334646,0 -0.000692913,-1.5748e-005 -0.00102756,-2.75591e-005 -0.0075,-0.000385827 -0.0141535,-0.00494488 -0.0172244,-0.0117874 -0.0034252,-0.00763386 -0.00890945,-0.017752 -0.0154803,-0.027622 0.0351378,-0.0618583 0.0442559,-0.126819 0.0458661,-0.19926 0.0337717,0.0452992 0.0657402,0.124118 0.00517323,0.228724 -0.00358268,0.00619291 -0.0101969,0.00997244 -0.0173071,0.00997244zm-0.367425 0c-0.00711417,0 -0.0137205,-0.00377953 -0.0173071,-0.00997244 -0.0604567,-0.104409 -0.0286535,-0.183169 0.00496457,-0.228441 0.00163386,0.0724213 0.0108228,0.137339 0.0460039,0.199201 -0.00731102,0.0110748 -0.0129016,0.0218465 -0.0153976,0.0274134 -0.00308268,0.00684252 -0.00974016,0.0114016 -0.0172244,0.0117874 -0.000358268,-3.93701e-006 -0.000704724,1.1811e-005 -0.00103937,1.1811e-005zm0.261555 -0.0189331l-0.155925 0c-0.00623622,0 -0.012126,-0.00290157 -0.0158976,-0.00787402 -0.0521693,-0.0684134 -0.062374,-0.139764 -0.062374,-0.239898 0,-0.0579055 0.0147638,-0.118441 0.0397598,-0.172071l0.23298 0c0.0249921,0.0536299 0.0397559,0.114165 0.0397559,0.172071 0,0.100134 -0.0102126,0.1715 -0.0623898,0.239898 -0.00378346,0.00497244 -0.00965748,0.00787402 -0.0159094,0.00787402zm-0.0779567 -0.199906c-0.0466496,0 -0.0846102,-0.0379606 -0.0846102,-0.0846102 0,-0.0466496 0.0379606,-0.0846063 0.0846102,-0.0846063 0.0466496,0 0.0846063,0.0379567 0.0846063,0.0846063 0,0.0466496 -0.0379528,0.0846102 -0.0846063,0.0846102zm0 -0.129213c-0.0245984,0 -0.0446102,0.0200157 -0.0446102,0.0446063 0,0.0245945 0.0200157,0.0446102 0.0446102,0.0446102 0.0245984,0 0.0446063,-0.0200157 0.0446063,-0.0446102 0,-0.0245906 -0.0200079,-0.0446063 -0.0446063,-0.0446063zm0.0240827 0.226307l-0.0481654 0c-0.0110394,0 -0.02,-0.00896063 -0.02,-0.02 0,-0.0110394 0.00896063,-0.02 0.02,-0.02l0.0481654 0c0.0110394,0 0.02,0.00896063 0.02,0.02 0,0.0110394 -0.00895669,0.02 -0.02,0.02zm-0.119232 -0.357031c0.0231496,-0.0381732 0.0517126,-0.0707638 0.0836024,-0.0933583 0.00692913,-0.00492126 0.0161929,-0.00492126 0.023122,0 0.0318858,0.0225906 0.0604449,0.0551811 0.0835984,0.0933583l-0.190323 0zm-0.39898 1.60172l-0.104181 -0.0544331 0 -0.194083 0.104181 -0.0544331 0 0.302949zm-0.144181 -0.0753346l-0.111807 -0.0584173c-0.00659843,-0.00344488 -0.0107323,-0.0102795 -0.0107323,-0.0177205 0,-0.00744488 0.00413386,-0.0142795 0.0107323,-0.0177244l0.111807 -0.0584173 0 0.15228zm1.35112 0.0832205l-0.167417 0 0 -0.318724 0.167417 0c0.0878622,0 0.159354,0.0714882 0.159354,0.159374 0,0.0878898 -0.0714921,0.15935 -0.159354,0.15935zm-0.207417 0l-0.0560945 0 0 -0.318724 0.0560945 0 0 0.318724zm-0.0961063 0l-0.863417 0 0 -0.0985 0.863417 0 0 0.0985zm-0.863417 -0.1385l0 -0.0416929 0.863417 0 0 0.0416929 -0.863417 0zm0 -0.0816929l0 -0.0985315 0.863417 0 0 0.0985315 -0.863417 0zm0.979945 -0.291972l-0.0284724 0 0 0.0919882 0 0.0453346 0 0.016122 0.11911 0 0 -0.016122 2.75591e-005 0 0 -0.0848268c0.0609843,-0.0444882 0.0970945,-0.115055 0.0970945,-0.190917 0,-0.130252 -0.105972,-0.236209 -0.236217,-0.236209 -0.130244,0 -0.236217,0.105957 -0.236217,0.236209 0,0.0758622 0.0360787,0.146429 0.0970787,0.190902l0 0.0848425 0 0.016122 0.119122 0 0 -0.016122 0 -0.0453346 0 -0.0919882 -0.0284567 0c-0.0182362,0 -0.0330551,-0.0148189 -0.0330551,-0.0330551l0 -0.118512c0,-0.0182362 0.0148189,-0.0330551 0.0330551,-0.0330551l0.0969291 0c0.0182205,0 0.0330394,0.0148189 0.0330394,0.0330551l0 0.118512c0,0.0182362 -0.0148189,0.0330551 -0.0330394,0.0330551zm-0.0899724 -0.04l0.0830118 0 0 -0.104594 -0.0830118 0 0 0.104594zm0.200496 -0.353843c-0.00340157,0 -0.00683465,-0.000877953 -0.00998425,-0.0026811 -0.00957087,-0.00551181 -0.0128465,-0.017748 -0.0073189,-0.0273189l0.0375709 -0.0650709c0.00552756,-0.00956693 0.0178031,-0.0128031 0.027315,-0.00731496 0.00957087,0.00551181 0.0128465,0.017748 0.0073189,0.027315l-0.0375709 0.0650709c-0.00368898,0.00642126 -0.0104291,0.01 -0.0173307,0.01zm0.116429 0.116402c-0.00690551,0 -0.0136299,-0.00359449 -0.0173346,-0.0100118 -0.00551181,-0.00955512 -0.00223622,-0.0217913 0.0073189,-0.0273189l0.0650787 -0.0375709c0.00954331,-0.00552756 0.0217795,-0.00225197 0.0273189,0.0073189 0.00551181,0.00955512 0.00223622,0.0217913 -0.0073189,0.0273189l-0.0650787 0.0375512c-0.00314961,0.00183858 -0.00659449,0.0027126 -0.00998425,0.0027126zm0.117736 0.159012l-0.0751378 0c-0.0110394,0 -0.02,-0.0089685 -0.02,-0.02 0,-0.0110276 0.0089685,-0.02 0.02,-0.02l0.0751378 0c0.0110394,0 0.02,0.00897244 0.02,0.02 0,0.0110315 -0.00895669,0.02 -0.02,0.02zm-0.0526772 0.196583c-0.00340157,0 -0.00683465,-0.000877953 -0.00998425,-0.00268504l-0.0650827 -0.0375669c-0.00956693,-0.00551181 -0.0128425,-0.017748 -0.00731496,-0.0273189 0.00554331,-0.00956693 0.0178031,-0.0128189 0.027315,-0.00731496l0.0650827 0.0375669c0.00956693,0.00551181 0.0128425,0.017748 0.00731496,0.0273189 -0.00370866,0.00641732 -0.0104331,0.01 -0.0173307,0.01zm-0.680953 0c-0.00690157,0 -0.013626,-0.00359843 -0.0173346,-0.0100157 -0.00550787,-0.00955512 -0.00225197,-0.0217913 0.0073189,-0.0273189l0.0650827 -0.0375669c0.00952756,-0.00551181 0.0217795,-0.00225197 0.027315,0.00731496 0.00551181,0.00955512 0.00225197,0.0217913 -0.00731496,0.0273189l-0.0650827 0.0375669c-0.00314961,0.00183858 -0.00658268,0.00270079 -0.00998425,0.00270079zm0.0224567 -0.196583l-0.0751378 0c-0.0110394,0 -0.02,-0.0089685 -0.02,-0.02 0,-0.0110276 0.00896063,-0.02 0.02,-0.02l0.0751378 0c0.0110394,0 0.02,0.00897244 0.02,0.02 0,0.0110315 -0.00895669,0.02 -0.02,0.02zm0.0425827 -0.159012c-0.00340157,0 -0.00683465,-0.000874016 -0.00998425,-0.0026811l-0.0650827 -0.0375512c-0.00955118,-0.00552756 -0.0128425,-0.0177638 -0.00731496,-0.0273189 0.00552756,-0.00958661 0.0177874,-0.0128189 0.027315,-0.0073189l0.0650827 0.0375709c0.00955118,0.00551181 0.0128425,0.017748 0.00731496,0.0273189 -0.00368898,0.00638583 -0.0104291,0.00998031 -0.0173307,0.00998031zm0.116429 -0.116402c-0.00690157,0 -0.013626,-0.00358661 -0.0173346,-0.01l-0.0375669 -0.065063c-0.00551181,-0.00957087 -0.00225197,-0.0218071 0.00731496,-0.0273189 0.00952756,-0.0055 0.0217795,-0.00226378 0.0273189,0.0073189l0.0375669 0.0650709c0.00551181,0.00956693 0.00225197,0.0218031 -0.00731496,0.027315 -0.00314961,0.00181496 -0.00657874,0.00267717 -0.00998425,0.00267717zm0.159 -0.0426063c-0.0110394,0 -0.02,-0.00896063 -0.02,-0.02l0 -0.0751378c0,-0.0110394 0.00897244,-0.02 0.02,-0.02 0.0110276,0 0.02,0.00896063 0.02,0.02l0 0.0751378c1.5748e-005,0.0110551 -0.00896063,0.02 -0.02,0.02zm-0.709661 0.578425c-0.0732087,0 -0.132768,-0.0595118 -0.132768,-0.13265 0,-0.0731378 0.0595591,-0.13265 0.132768,-0.13265 0.0732126,0 0.132783,0.0595118 0.132783,0.13265 0,0.0731378 -0.0595709,0.13265 -0.132783,0.13265zm0 -0.225287c-0.0511339,0 -0.0927283,0.0415512 -0.0927283,0.0926378 0,0.0510866 0.0415906,0.0926417 0.0927283,0.0926417 0.0511417,0 0.0927441,-0.0415551 0.0927441,-0.0926417 0,-0.0510866 -0.0416024,-0.0926378 -0.0927441,-0.0926378z"></path>
</svg>
