<svg xmlns="http://www.w3.org/2000/svg" viewBox="0 0 512 512" id="diy">
  <g fill="#1b94a6" class="color000000 svgShape">
    <path d="M451.76 188.82h-31.83a166.91 166.91 0 0 0-22.63-54.64l22.51-22.51a17.94 17.94 0 0 0 0-25.38l-25.39-25.38a17.94 17.94 0 0 0-25.38 0l-22.51 22.51a166.54 166.54 0 0 0-54.64-22.64V29a18 18 0 0 0-17.95-18h-35.89a18 18 0 0 0-18 18v31.78a166.72 166.72 0 0 0-54.64 22.64L143 60.91a17.94 17.94 0 0 0-25.38 0L92.18 86.29a17.94 17.94 0 0 0 0 25.38l22.51 22.51a166.91 166.91 0 0 0-22.63 54.64H60.23a18 18 0 0 0-17.95 18v35.9a18 18 0 0 0 17.95 18h31.83a166.91 166.91 0 0 0 22.63 54.64l-6.11 6.11h68.82a124.52 124.52 0 1 1 157.19 0h68.82l-6.11-6.11a166.91 166.91 0 0 0 22.63-54.64h31.83a18 18 0 0 0 17.95-18v-35.9a18 18 0 0 0-17.95-18Z" fill="#1b94a6" class="color000000 svgShape"></path>
    <path d="M317.23 247.26c-20.1 20.11-55.16 17.65-78.29-5.48s-25.59-58.19-5.49-78.3c12.29-12.29 30.16-16.15 47.48-12a7.2 7.2 0 0 1 3.45 12.1l-22.15 22.16a11.18 11.18 0 0 0 0 15.83l16.93 16.93a11.2 11.2 0 0 0 15.83 0l22.15-22.15a7.21 7.21 0 0 1 12.11 3.45c4.13 17.31.27 35.2-12.02 47.46Z" fill="#1b94a6" class="color000000 svgShape"></path>
    <path d="M250.82 251.27 206 296.08a11.9 11.9 0 0 1-16.83 0l-4.54-4.55a11.88 11.88 0 0 1 0-16.82l44.81-44.81a68.4 68.4 0 0 0 21.37 21.37zm-75.55 108.52h-21.74a.32.32 0 0 0-.32.32v109.35a.31.31 0 0 0 .32.31h21.74a39.33 39.33 0 0 0 39.29-39.28v-31.41a39.34 39.34 0 0 0-39.29-39.29z" fill="#1b94a6" class="color000000 svgShape"></path>
    <path d="M456.17 321.37H55.83A34.84 34.84 0 0 0 21 356.21v110A34.84 34.84 0 0 0 55.83 501h400.34A34.84 34.84 0 0 0 491 466.16v-110a34.84 34.84 0 0 0-34.83-34.79ZM226.56 430.49a51.34 51.34 0 0 1-51.29 51.28h-21.74a12.32 12.32 0 0 1-12.32-12.31V360.11a12.33 12.33 0 0 1 12.32-12.32h21.74a51.35 51.35 0 0 1 51.29 51.29Zm41.73 45.28a6 6 0 0 1-12 0v-122a6 6 0 0 1 12 0Zm101.65-118.89-31.06 51.72v67.17a6 6 0 0 1-12 0V408.6l-31.06-51.72a6 6 0 0 1 10.29-6.18l26.77 44.59 26.77-44.59a6 6 0 0 1 10.29 6.18Z" fill="#1b94a6" class="color000000 svgShape"></path>
  </g>
</svg>
