<svg xmlns="http://www.w3.org/2000/svg" viewBox="0 0 512 512" id="diy">
  <g fill="#d60a0a" class="color000000 svgShape">
    <path d="M456.17 507H55.82A40.89 40.89 0 0 1 15 466.16v-31.57a6 6 0 0 1 12 0v31.57A28.88 28.88 0 0 0 55.82 495h400.35A28.87 28.87 0 0 0 485 466.16v-110a28.86 28.86 0 0 0-28.84-28.84H55.82A28.87 28.87 0 0 0 27 356.21v31.58a6 6 0 0 1-12 0v-31.58a40.89 40.89 0 0 1 40.84-40.84h400.33A40.89 40.89 0 0 1 497 356.21v110A40.89 40.89 0 0 1 456.17 507Z" fill="#d60a0a" class="color000000 svgShape"></path>
    <path d="M21 421.69a6 6 0 0 1-6-6v-9a6 6 0 0 1 12 0v9a6 6 0 0 1-6 6zm382.41-94.32H108.58a6 6 0 0 1-4.24-10.25l2.74-2.74a172.65 172.65 0 0 1-19.78-47.76H60.23a24 24 0 0 1-23.95-24v-35.9a24 24 0 0 1 23.95-24H87.3a172.59 172.59 0 0 1 19.78-47.77l-19.14-19.04a24 24 0 0 1 0-33.87l25.39-25.38a24 24 0 0 1 33.87 0l19.14 19.14A172.12 172.12 0 0 1 214.1 56V29a24 24 0 0 1 23.95-24h35.89a24 24 0 0 1 23.95 24v27a171.81 171.81 0 0 1 47.77 19.8l19.14-19.14a23.95 23.95 0 0 1 33.87 0L424.06 82a23.95 23.95 0 0 1 0 33.87l-19.13 19.14a172.59 172.59 0 0 1 19.78 47.77h27.06a24 24 0 0 1 23.95 24v35.9a24 24 0 0 1-23.95 24H424.7a172.53 172.53 0 0 1-19.78 47.76l2.74 2.74a6 6 0 0 1-4.25 10.25zm-282.72-12h270.62a5.88 5.88 0 0 1 .94-3.35 160.47 160.47 0 0 0 21.82-52.68 6 6 0 0 1 5.86-4.72h31.83a12 12 0 0 0 11.95-12v-35.9a12 12 0 0 0-11.95-12h-31.83a6 6 0 0 1-5.86-4.73 160.33 160.33 0 0 0-21.82-52.67 6 6 0 0 1 .81-7.49l22.51-22.51a11.94 11.94 0 0 0 0-16.89l-25.39-25.28a11.94 11.94 0 0 0-16.89 0l-22.51 22.51a6 6 0 0 1-7.49.8 160 160 0 0 0-52.67-21.82 6 6 0 0 1-4.73-5.86V29a12 12 0 0 0-11.95-12h-35.89a12 12 0 0 0-12 12v31.78a6 6 0 0 1-4.72 5.86 160.18 160.18 0 0 0-52.67 21.83 6 6 0 0 1-7.49-.81l-22.46-22.51a11.94 11.94 0 0 0-16.89 0L96.43 90.53a12 12 0 0 0 0 16.89l22.52 22.51a6 6 0 0 1 .8 7.49 160.52 160.52 0 0 0-21.81 52.67 6 6 0 0 1-5.87 4.73H60.23a12 12 0 0 0-11.95 12v35.9a12 12 0 0 0 11.95 12h31.83a6 6 0 0 1 5.87 4.72A160.66 160.66 0 0 0 119.74 312a6 6 0 0 1 .95 3.37z" fill="#d60a0a" class="color000000 svgShape"></path>
    <path d="M334.59 327.37H177.4a6 6 0 0 1-3.79-1.35 130.26 130.26 0 0 1-48.13-101.3c0-72 58.56-130.6 130.52-130.6s130.51 58.58 130.51 130.6A130.25 130.25 0 0 1 338.39 326a6 6 0 0 1-3.8 1.37Zm-155-12h152.84a118.26 118.26 0 0 0 42.08-90.65c0-65.4-53.16-118.6-118.51-118.6s-118.52 53.2-118.52 118.6a118.24 118.24 0 0 0 42.09 90.65Z" fill="#d60a0a" class="color000000 svgShape"></path>
    <path d="M283.12 266.83c-16.92 0-34.65-7-48.42-20.81-12.22-12.21-19.57-27.87-20.7-44.11-1.16-16.54 4.24-31.7 15.21-42.67 13.29-13.29 33.14-18.38 53.11-13.61a13.24 13.24 0 0 1 9.68 9.27 13 13 0 0 1-3.37 12.92L266.47 190a5.2 5.2 0 0 0 0 7.35l16.93 16.93a5.21 5.21 0 0 0 7.35 0l22.15-22.16a13 13 0 0 1 12.92-3.36 13.26 13.26 0 0 1 9.27 9.66c4.76 20-.32 39.83-13.61 53.12-10.28 10.24-24.03 15.29-38.36 15.29Zm-15.45-110.95c-11.56 0-22.25 4.13-30 11.85-8.48 8.47-12.65 20.32-11.73 33.35.93 13.34 7.05 26.29 17.21 36.46 20.76 20.75 52.08 23.22 69.81 5.48 10.32-10.32 14.21-26 10.42-41.84a1.17 1.17 0 0 0-.86-.91 1.12 1.12 0 0 0-1.16.31l-22.16 22.15a17.2 17.2 0 0 1-24.31 0L258 205.8a17.23 17.23 0 0 1 0-24.32l22.16-22.15a1.11 1.11 0 0 0 .3-1.17 1.19 1.19 0 0 0-.9-.86 51.44 51.44 0 0 0-11.89-1.42Z" fill="#d60a0a" class="color000000 svgShape"></path>
    <path d="M197.6 305.57a17.8 17.8 0 0 1-12.66-5.25l-4.54-4.54a17.89 17.89 0 0 1 0-25.32l44.81-44.81a6 6 0 0 1 9.32 1A62.38 62.38 0 0 0 254 246.19a6 6 0 0 1 1 9.32l-44.81 44.81a17.74 17.74 0 0 1-12.59 5.25zm31.05-66.39L188.88 279a5.89 5.89 0 0 0 0 8.34l4.55 4.55a5.88 5.88 0 0 0 8.33 0l39.78-39.77a74.64 74.64 0 0 1-12.89-12.89zm-53.38 108.61h-21.74a12.33 12.33 0 0 0-12.32 12.32v109.35a12.32 12.32 0 0 0 12.32 12.31h21.74a51.34 51.34 0 0 0 51.29-51.28v-31.41a51.35 51.35 0 0 0-51.29-51.29zm39.29 82.7a39.33 39.33 0 0 1-39.29 39.28h-21.74a.31.31 0 0 1-.32-.31V360.11a.32.32 0 0 1 .32-.32h21.74a39.34 39.34 0 0 1 39.29 39.29zm47.73-82.7a6 6 0 0 0-6 6v122a6 6 0 0 0 12 0v-122a6 6 0 0 0-6-6zm105.59.86a6 6 0 0 0-8.23 2.05l-26.77 44.59-26.77-44.59a6 6 0 0 0-10.29 6.18l31.06 51.72v67.17a6 6 0 0 0 12 0V408.6l31.06-51.72a6 6 0 0 0-2.06-8.23z" fill="#d60a0a" class="color000000 svgShape"></path>
  </g>
</svg>
