<svg xmlns="http://www.w3.org/2000/svg" viewBox="0 0 66 66" id="Scholar">
  <path d="M20.2 21.4c0 .4.3.8.7.9l6.1 1.8.1 3.8c-1.1 4.2 1.7 9.7 5.9 9.7s7-5.3 5.9-9.6l.2-3.9 2.1-.7V25c0 .6.4 1 1 1s1-.4 1-1v-2.2l1.7-.5c.4-.1.7-.5.7-.9s-.2-.8-.6-1l-11.8-5.1c-.3-.1-.5-.1-.8 0l-11.8 5.1c-.2.2-.5.6-.4 1zM33 23c1 0 3.3.2 4.1.7l-.1 2.5c-2.2-.6-5.7-.7-8 0l-.1-2.6c.9-.5 3.1-.6 4.1-.6zm0 12.7c-2.4 0-4.9-3.6-3.9-7.3 1.7-.9 6.3-.8 7.9 0 1 3.5-1.5 7.3-4 7.3zm-.1-18.3 8.9 3.9-3.2 1c-1.2-1.1-4-1.3-5.6-1.3-1.6 0-4.4.2-5.6 1.3l-3.4-1 8.9-3.9zm10.9-1.8 4.7 1.4.1 2.9c-.2.6-.2 1.3-.2 1.6 0 3 2.1 6.3 5.1 6.3 3 0 5.1-3.3 5.1-6.3 0-.6-.1-1.1-.2-1.5l.1-3 1.3-.4v1c0 .6.4 1 1 1s1-.4 1-1V16l1.2-.4c.4-.1.7-.5.7-.9s-.2-.8-.6-1l-9.4-4.1c-.3-.1-.5-.1-.8 0l-9.4 4.1c-.4.2-.6.6-.6 1 .2.4.5.8.9.9zm9.8.5c.9 0 2.4.1 3.1.5l-.1 1.7c-1.7-.5-4.3-.5-6 0l-.1-1.7c.7-.4 2.2-.5 3.1-.5zm0 9.8c-1.6 0-3.1-2.1-3.1-4.3 0-.3.1-.9.2-1.2 1.3-.6 4.8-.5 6 0 .1.3.2.8.2 1.2-.2 2.1-1.7 4.3-3.3 4.3zm-.1-14.2 6.5 2.8-1.9.6c-1-.8-3.2-1-4.5-1-1.3 0-3.5.2-4.5 1l-2.1-.6 6.5-2.8z" fill="#1b94a6" class="color000000 svgShape"></path>
  <path d="M65 41.4c-1-14 .1 1.9-.7-10.2-.2-1.1-.4-2.7-2.3-3.2-1.6-.5-1.9-.8-3.8-1-.3 0-.7.1-.9.4-.2.3-.3.6-.2.9.2.7.3 1.4.4 2.1.1 2.5-1.6 4.6-3.9 6.8-3.3-3.3-4.4-6.2-3.6-9 .1-.3 0-.7-.2-.9-.2-.2-.5-.3-.8-.3-2 .2-2.3.6-3.9 1-1.8.5-2 2.1-2.2 3.2-.4 5.5.4-6.5-.5 6.8-1-.3-2.5-.8-3.7-.9-.3 0-.7.1-.9.4-.2.3-.3.6-.2.9 1.5 4.9-.6 7.7-4.7 11.6-4.3-4.3-5.8-8-4.7-11.6.1-.3 0-.7-.2-.9-.2-.3-.5-.4-.9-.4-1.3.1-2.7.5-3.7.9-.1-1.3-.2-2.3-.2-3.3-.1-4.7-.2-6.1-2.3-6.7-1.6-.5-1.9-.8-3.8-1-.3 0-.7.1-.9.4-.2.2-.3.6-.2.9 1.1 3.8-.4 5.9-3.6 9-3.3-3.4-4.4-6.2-3.6-9 .1-.3 0-.7-.2-.9-.1-.3-.4-.4-.8-.4-2 .2-2.3.5-3.9 1-2.1.6-2.2 1.7-2.5 7.8-.1 1.6-.2 3.5-.4 6 0 .3.1.5.3.8.2.2.5.3.7.3h17.7c-.1 1.5-.1 1.6-.8 12.5 0 .3.1.5.3.8.2.2.5.3.7.3h26c.3 0 .5-.1.7-.3.2-.2.3-.5.3-.8-.8-11.4-.7-10.3-.8-12.5h17.6c.4 0 .9-.1 1.1-.4.3-.5.2-.8.2-1.1zM3.4 36c.4-5.8.4-5.8 1.1-6 .8-.2 1.7-.6 2.1-.7-.4 3.2 1.3 6.5 5.1 10.2.4.4 1 .4 1.4 0 3.2-3.1 5.8-5.8 5.2-10.1.4.1 1.2.4 2.1.7.7.2.8.4 1 4.8.1 1.1.1 2.4.3 3.9-1 .6-1.3 1.4-1.5 2.2h-.4v-2.6c0-.6-.4-1-1-1s-1 .4-1 1V41H7.2v-2.6c0-.6-.4-1-1-1s-1 .4-1 1V41H3.1c.1-2.1.2-3.7.3-5zm38.4 18.4V51c0-.6-.4-1-1-1s-1 .4-1 1v3.4H26.2V51c0-.6-.4-1-1-1s-1 .4-1 1v3.4h-3.1c.5-7.6.7-10.8.9-12.4.2-1.2.4-1.6 1.1-1.8.1 0 1.4-.6 3.1-1-.6 4.1 1.4 8.2 6.2 12.8.4.4 1 .4 1.4 0 4.1-3.9 7.3-7.3 6.3-12.8 1.4.3 2.7.8 2.9.9.6.3.9.1 1.2 1.8.1.8 0-.8.9 12.4h-3.3zm19-13.5v-2.6c0-.6-.4-1-1-1s-1 .4-1 1v2.6H48.3v-2.6c0-.6-.4-1-1-1s-1 .4-1 1v2.6h-.4c-.3-1-.8-1.8-1.5-2.2.3-3.8.4-5.5.5-7.3.2-1.2.3-1.4.8-1.5.8-.2 1.6-.6 2.1-.7-.4 3.2 1.3 6.5 5.1 10.2.4.4 1 .4 1.4 0 3-2.9 5.5-5.5 5.3-9.1 0-.3-.1-.7-.1-1.1.4.1 1.2.4 2.1.7.5.1.6.3.8 1.6.7 10.5.6 9.1.6 9.4h-2.2z" fill="#1b94a6" class="color000000 svgShape"></path>
  <path d="M2.6 15.6 7.4 17l.1 2.9c-.9 3.5 1.4 8 4.9 8 3.4 0 5.8-4.3 4.9-7.9l.1-3 1.3-.4v1c0 .6.4 1 1 1s1-.4 1-1V16l1.2-.4c.4-.1.7-.5.7-.9s-.2-.8-.6-1l-9.4-4.1c-.3-.1-.5-.1-.8 0l-9.4 4.1c-.4.2-.6.6-.6 1 .2.4.4.8.8.9zm9.8.5c.9 0 2.4.1 3.1.5l-.1 1.7c-1.7-.5-4.3-.5-6 0l-.1-1.7c.8-.4 2.3-.5 3.1-.5zm0 9.8c-1.7 0-3.6-2.5-3-5.5 1.3-.6 4.8-.5 6 0 .8 2.7-1.2 5.5-3 5.5zm-.1-14.2 6.5 2.8-1.9.6c-1-.8-3.2-1-4.5-1-1.3 0-3.5.2-4.5 1l-2.1-.6 6.5-2.8z" fill="#1b94a6" class="color000000 svgShape"></path>
</svg>
