<?xml version="1.0" standalone="no"?>
<!DOCTYPE svg PUBLIC "-//W3C//DTD SVG 20010904//EN"
 "http://www.w3.org/TR/2001/REC-SVG-20010904/DTD/svg10.dtd">
<svg version="1.0" xmlns="http://www.w3.org/2000/svg"
 width="836.000000pt" height="836.000000pt" viewBox="0 0 836.000000 836.000000"
 preserveAspectRatio="xMidYMid meet">
<metadata>
Created by potrace 1.14, written by Peter Selinger 2001-2017
</metadata>
<g transform="translate(0.000000,836.000000) scale(0.100000,-0.100000)"
fill="#000000" stroke="none">
<path d="M7900 4825 c-290 -66 -523 -326 -515 -576 4 -111 50 -186 145 -234
55 -28 100 -36 200 -36 309 0 616 274 629 562 5 128 -56 228 -167 269 -69 26
-211 34 -292 15z m118 -233 c29 -19 52 -63 52 -101 0 -51 -39 -138 -84 -188
-130 -145 -323 -121 -310 38 9 107 107 226 214 260 37 12 102 7 128 -9z"/>
<path d="M946 4811 c-2 -3 -23 -58 -46 -121 -22 -63 -45 -124 -50 -135 -5 -11
-39 -103 -76 -205 -36 -102 -79 -221 -95 -264 -16 -44 -29 -82 -29 -86 0 -12
542 -4 605 10 77 16 152 50 191 86 69 64 112 164 99 232 -6 34 -55 92 -78 92
-7 1 3 9 21 18 118 63 190 217 139 295 -47 72 -111 85 -427 85 -137 0 -252 -3
-254 -7z m341 -190 c65 -2 76 -53 20 -95 -21 -15 -46 -20 -112 -22 -49 -2 -85
1 -85 6 0 12 31 92 41 105 4 6 29 9 56 8 26 -1 62 -2 80 -2z m-29 -314 c16
-11 15 -32 -2 -66 -21 -39 -49 -48 -163 -50 l-102 -2 19 56 c10 30 22 59 25
64 6 11 205 8 223 -2z"/>
<path d="M1837 4801 c-3 -9 -68 -189 -146 -401 -77 -211 -141 -389 -141 -395
0 -7 107 -10 336 -10 l336 0 38 103 c20 56 35 103 31 103 -3 1 -89 3 -191 4
-229 3 -212 1 -201 23 5 9 15 32 21 50 l12 32 102 1 c55 0 132 1 171 2 l70 2
36 95 c20 52 34 97 33 99 -2 2 -78 4 -169 4 -91 0 -165 3 -165 8 0 5 7 26 16
47 l15 39 172 1 c95 1 184 1 198 2 19 0 28 6 32 23 2 12 18 59 35 104 l29 81
-332 0 c-298 -1 -334 -2 -338 -17z"/>
<path d="M2620 4800 c-5 -9 -63 -165 -129 -346 -66 -181 -129 -354 -140 -384
-12 -30 -21 -60 -21 -65 0 -8 44 -11 132 -10 l132 0 65 178 c35 97 67 177 71
177 3 0 13 -15 21 -32 8 -18 45 -99 82 -179 l68 -146 110 2 c60 0 113 5 117
10 5 6 19 39 31 75 13 36 33 92 46 125 13 33 53 143 90 245 37 102 81 221 97
265 16 44 30 85 31 90 1 6 -48 10 -132 10 l-134 0 -65 -177 c-36 -98 -68 -178
-71 -178 -3 0 -19 31 -36 68 -16 37 -53 117 -81 178 l-53 112 -111 0 c-95 0
-112 -2 -120 -18z"/>
<path d="M3556 4811 c-2 -3 -52 -139 -111 -301 -59 -162 -122 -335 -140 -385
-19 -49 -36 -99 -39 -110 -6 -20 -3 -21 330 -20 288 0 337 2 344 15 7 13 55
142 66 180 4 13 -21 15 -190 15 -107 0 -197 3 -201 6 -3 3 3 27 12 52 l17 47
86 1 c47 0 124 0 171 -1 l86 -1 36 97 c20 54 34 100 32 102 -3 3 -79 4 -170 3
-91 0 -165 0 -165 2 0 2 7 24 15 49 l16 45 182 1 c100 0 189 1 197 1 11 1 27
32 49 94 19 50 36 97 38 103 3 9 -84 12 -327 12 -182 -1 -332 -3 -334 -7z"/>
<path d="M4329 4792 c-6 -15 -55 -149 -109 -298 -54 -149 -117 -319 -139 -378
-23 -60 -39 -111 -36 -115 7 -12 485 -5 540 8 281 64 500 312 492 559 -4 111
-60 184 -177 228 -37 14 -89 18 -303 20 l-258 3 -10 -27z m402 -210 c109 -53
44 -263 -104 -339 -40 -20 -70 -26 -139 -29 l-89 -5 7 28 c4 15 25 75 47 133
21 58 48 133 60 168 l21 63 82 -2 c51 -1 95 -8 115 -17z"/>
<path d="M5296 4811 c-4 -7 -127 -339 -196 -531 -21 -58 -52 -142 -69 -188
-17 -46 -31 -87 -31 -90 0 -4 152 -7 337 -7 l338 0 37 100 c20 55 37 102 37
105 1 3 -89 5 -199 5 -110 0 -200 1 -200 3 0 2 7 25 16 53 l16 49 173 0 172 0
36 97 c20 54 34 99 32 101 -2 2 -79 4 -170 4 -120 0 -165 3 -162 12 2 6 10 28
17 48 l14 37 193 -1 c106 -1 195 1 197 3 2 2 20 50 39 106 l36 102 -330 -1
c-181 0 -331 -3 -333 -7z"/>
<path d="M6010 4801 c-8 -16 -70 -190 -70 -198 0 -1 52 -3 115 -3 63 0 115 -2
115 -4 0 -6 -173 -481 -199 -549 -21 -53 -21 -53 124 -53 l134 0 65 176 c36
96 86 232 111 303 l47 127 118 0 c103 0 119 2 125 18 4 9 22 58 40 108 l33 92
-374 0 c-340 -1 -376 -2 -384 -17z"/>
<path d="M6785 4809 c-6 -9 -75 -198 -75 -204 0 -3 52 -5 115 -5 63 0 115 -3
115 -6 0 -3 -34 -99 -76 -212 -106 -287 -134 -365 -134 -377 0 -14 255 -14
269 0 7 8 124 317 213 567 l10 27 120 3 120 3 38 103 c20 56 35 104 31 106
-13 8 -742 3 -746 -5z"/>
<path d="M430 3845 c0 -14 6 -25 13 -26 6 0 540 -1 1185 -2 l1172 -2 0 28 0
27 -1185 0 -1185 0 0 -25z"/>
<path d="M3006 3691 c-107 -131 -131 -167 -118 -172 27 -10 46 0 71 37 13 19
31 34 40 35 9 1 48 2 86 3 l70 1 3 -37 c2 -21 9 -38 15 -39 7 0 22 -2 34 -3
21 -2 22 0 18 53 -2 31 -7 97 -11 146 -4 50 -8 97 -10 105 -1 8 -3 20 -3 27
-1 6 -14 11 -31 11 -26 -1 -46 -21 -164 -167z m145 34 c1 -33 1 -65 0 -71 -1
-6 -22 -10 -53 -9 -38 1 -52 5 -50 15 3 15 94 131 99 126 1 -1 3 -29 4 -61z"/>
<path d="M3551 3781 c-51 -134 -61 -178 -50 -210 26 -75 155 -75 240 1 31 26
55 73 92 173 43 117 43 115 9 115 -29 0 -31 -4 -72 -114 -43 -117 -64 -150
-107 -167 -51 -19 -91 -8 -98 29 -4 24 0 40 43 159 17 45 27 84 24 87 -3 3
-15 6 -28 6 -19 0 -27 -13 -53 -79z"/>
<path d="M4100 3840 c-17 -32 -12 -37 40 -35 28 1 50 -2 50 -7 0 -4 -22 -69
-50 -144 -27 -75 -50 -137 -50 -137 0 -1 14 -2 30 -2 32 0 38 12 118 235 l20
55 55 -1 c52 -1 57 1 66 26 l9 28 -139 0 c-126 1 -140 -1 -149 -18z"/>
<path d="M4695 3844 c-130 -46 -215 -215 -145 -289 81 -86 268 -26 334 107 42
85 30 148 -34 180 -42 21 -100 22 -155 2z m120 -58 c19 -13 25 -25 25 -52 0
-78 -71 -152 -154 -161 -38 -5 -48 -2 -70 20 -31 31 -33 60 -6 111 44 87 140
125 205 82z"/>
<path d="M5510 3771 c-17 -47 -45 -122 -61 -165 -16 -43 -27 -81 -24 -84 2 -3
46 -5 98 -5 104 0 157 17 219 72 71 62 99 171 58 224 -28 35 -62 44 -167 45
l-90 0 -33 -87z m224 10 c48 -45 5 -150 -76 -190 -44 -21 -164 -31 -156 -13 2
4 21 58 42 118 l40 110 63 -1 c50 -2 69 -7 87 -24z"/>
<path d="M6125 3847 c-3 -7 -29 -80 -60 -163 -30 -83 -55 -155 -55 -160 0 -7
166 -10 236 -5 6 1 16 12 22 26 l12 25 -95 0 c-52 0 -95 1 -95 3 0 2 7 24 15
48 l16 45 74 -1 c82 -2 89 0 99 31 6 21 4 22 -69 21 -41 0 -77 2 -80 4 -2 3 4
23 14 45 l18 40 87 -1 c73 -1 89 2 97 16 5 10 9 22 9 28 0 15 -240 13 -245 -2z"/>
<path d="M6593 3841 c-8 -31 -2 -36 45 -36 56 0 56 12 -4 -153 -24 -67 -44
-127 -44 -133 0 -12 52 0 62 15 4 5 28 69 54 141 l47 132 54 -2 c43 -1 56 2
64 17 6 10 7 22 4 27 -3 5 -66 9 -141 9 -117 -1 -137 -3 -141 -17z"/>
<path d="M7076 3693 c-109 -135 -132 -169 -118 -174 18 -6 52 0 52 10 0 3 13
20 28 36 27 28 32 30 108 30 l79 0 3 -37 c3 -38 18 -49 55 -40 14 4 17 12 13
41 -3 20 -8 83 -12 140 -3 57 -8 111 -9 120 -2 9 -4 22 -4 29 -1 6 -14 12 -30
12 -25 0 -46 -21 -165 -167z m145 31 c1 -32 1 -63 0 -69 -1 -5 -27 -10 -60
-10 -51 0 -57 2 -47 15 52 71 99 130 102 127 2 -2 4 -30 5 -63z"/>
<path d="M7650 3838 c-5 -13 -34 -89 -63 -170 -45 -123 -51 -148 -38 -151 45
-9 41 -16 132 236 l39 107 -30 0 c-22 0 -33 -6 -40 -22z"/>
<path d="M8000 3857 c0 -3 -49 -138 -89 -246 -17 -47 -29 -87 -26 -89 3 -3 55
-6 116 -6 l111 -1 14 27 14 27 -89 3 -90 3 50 135 c27 74 49 138 49 143 0 4
-13 7 -30 7 -16 0 -30 -1 -30 -3z"/>
<path d="M249 3725 c-1 0 -2 -12 -3 -27 l-3 -28 1277 0 1277 0 -1 28 -1 27
-1272 0 c-700 0 -1273 0 -1274 0z"/>
<path d="M0 3542 l0 -27 1398 0 1397 0 3 28 3 27 -1400 0 -1401 0 0 -28z"/>
</g>
</svg>
